# Tiled2Unity generated file. Do not modify by hand.
# Wavefront file for 'OverworldTest_mesh_0002.obj'

# Vertices (Count = 560)
v -24 -1 0
v -25 -1 0
v -25 0 0
v -24 0 0
v -23 -1 0
v -24 -1 0
v -24 0 0
v -23 0 0
v -22 -1 0
v -23 -1 0
v -23 0 0
v -22 0 0
v -21 -1 0
v -22 -1 0
v -22 0 0
v -21 0 0
v -20 -1 0
v -21 -1 0
v -21 0 0
v -20 0 0
v -19 -1 0
v -20 -1 0
v -20 0 0
v -19 0 0
v -18 -1 0
v -19 -1 0
v -19 0 0
v -18 0 0
v -17 -1 0
v -18 -1 0
v -18 0 0
v -17 0 0
v -16 -1 0
v -17 -1 0
v -17 0 0
v -16 0 0
v -15 -1 0
v -16 -1 0
v -16 0 0
v -15 0 0
v -14 -1 0
v -15 -1 0
v -15 0 0
v -14 0 0
v -11 -1 0
v -12 -1 0
v -12 0 0
v -11 0 0
v -10 -1 0
v -11 -1 0
v -11 0 0
v -10 0 0
v -9 -1 0
v -10 -1 0
v -10 0 0
v -9 0 0
v -8 -1 0
v -9 -1 0
v -9 0 0
v -8 0 0
v -7 -1 0
v -8 -1 0
v -8 0 0
v -7 0 0
v -6 -1 0
v -7 -1 0
v -7 0 0
v -6 0 0
v -5 -1 0
v -6 -1 0
v -6 0 0
v -5 0 0
v -4 -1 0
v -5 -1 0
v -5 0 0
v -4 0 0
v -3 -1 0
v -4 -1 0
v -4 0 0
v -3 0 0
v -2 -1 0
v -3 -1 0
v -3 0 0
v -2 0 0
v -1 -1 0
v -2 -1 0
v -2 0 0
v -1 0 0
v 0 -1 0
v -1 -1 0
v -1 0 0
v 0 0 0
v -24 -2 0
v -25 -2 0
v -25 -1 0
v -24 -1 0
v 0 -2 0
v -1 -2 0
v -1 -1 0
v 0 -1 0
v -24 -3 0
v -25 -3 0
v -25 -2 0
v -24 -2 0
v 0 -3 0
v -1 -3 0
v -1 -2 0
v 0 -2 0
v -24 -4 0
v -25 -4 0
v -25 -3 0
v -24 -3 0
v 0 -4 0
v -1 -4 0
v -1 -3 0
v 0 -3 0
v -24 -5 0
v -25 -5 0
v -25 -4 0
v -24 -4 0
v -20 -5 0
v -21 -5 0
v -21 -4 0
v -20 -4 0
v -19 -5 0
v -20 -5 0
v -20 -4 0
v -19 -4 0
v -6 -5 0
v -7 -5 0
v -7 -4 0
v -6 -4 0
v -5 -5 0
v -6 -5 0
v -6 -4 0
v -5 -4 0
v -4 -5 0
v -5 -5 0
v -5 -4 0
v -4 -4 0
v -3 -5 0
v -4 -5 0
v -4 -4 0
v -3 -4 0
v -2 -5 0
v -3 -5 0
v -3 -4 0
v -2 -4 0
v 0 -5 0
v -1 -5 0
v -1 -4 0
v 0 -4 0
v -24 -6 0
v -25 -6 0
v -25 -5 0
v -24 -5 0
v -20 -6 0
v -21 -6 0
v -21 -5 0
v -20 -5 0
v -19 -6 0
v -20 -6 0
v -20 -5 0
v -19 -5 0
v -6 -6 0
v -7 -6 0
v -7 -5 0
v -6 -5 0
v -5 -6 0
v -6 -6 0
v -6 -5 0
v -5 -5 0
v -4 -6 0
v -5 -6 0
v -5 -5 0
v -4 -5 0
v -3 -6 0
v -4 -6 0
v -4 -5 0
v -3 -5 0
v -2 -6 0
v -3 -6 0
v -3 -5 0
v -2 -5 0
v 0 -6 0
v -1 -6 0
v -1 -5 0
v 0 -5 0
v -24 -7 0
v -25 -7 0
v -25 -6 0
v -24 -6 0
v -8 -7 0
v -9 -7 0
v -9 -6 0
v -8 -6 0
v -7 -7 0
v -8 -7 0
v -8 -6 0
v -7 -6 0
v -6 -7 0
v -7 -7 0
v -7 -6 0
v -6 -6 0
v -5 -7 0
v -6 -7 0
v -6 -6 0
v -5 -6 0
v -4 -7 0
v -5 -7 0
v -5 -6 0
v -4 -6 0
v -3 -7 0
v -4 -7 0
v -4 -6 0
v -3 -6 0
v -2 -7 0
v -3 -7 0
v -3 -6 0
v -2 -6 0
v 0 -7 0
v -1 -7 0
v -1 -6 0
v 0 -6 0
v -24 -8 0
v -25 -8 0
v -25 -7 0
v -24 -7 0
v -8 -8 0
v -9 -8 0
v -9 -7 0
v -8 -7 0
v -7 -8 0
v -8 -8 0
v -8 -7 0
v -7 -7 0
v -6 -8 0
v -7 -8 0
v -7 -7 0
v -6 -7 0
v -5 -8 0
v -6 -8 0
v -6 -7 0
v -5 -7 0
v -4 -8 0
v -5 -8 0
v -5 -7 0
v -4 -7 0
v -3 -8 0
v -4 -8 0
v -4 -7 0
v -3 -7 0
v -2 -8 0
v -3 -8 0
v -3 -7 0
v -2 -7 0
v 0 -8 0
v -1 -8 0
v -1 -7 0
v 0 -7 0
v -24 -9 0
v -25 -9 0
v -25 -8 0
v -24 -8 0
v -18 -9 0
v -19 -9 0
v -19 -8 0
v -18 -8 0
v -17 -9 0
v -18 -9 0
v -18 -8 0
v -17 -8 0
v -8 -9 0
v -9 -9 0
v -9 -8 0
v -8 -8 0
v -7 -9 0
v -8 -9 0
v -8 -8 0
v -7 -8 0
v -6 -9 0
v -7 -9 0
v -7 -8 0
v -6 -8 0
v -5 -9 0
v -6 -9 0
v -6 -8 0
v -5 -8 0
v -4 -9 0
v -5 -9 0
v -5 -8 0
v -4 -8 0
v -3 -9 0
v -4 -9 0
v -4 -8 0
v -3 -8 0
v -2 -9 0
v -3 -9 0
v -3 -8 0
v -2 -8 0
v 0 -9 0
v -1 -9 0
v -1 -8 0
v 0 -8 0
v -24 -10 0
v -25 -10 0
v -25 -9 0
v -24 -9 0
v -18 -10 0
v -19 -10 0
v -19 -9 0
v -18 -9 0
v -17 -10 0
v -18 -10 0
v -18 -9 0
v -17 -9 0
v 0 -10 0
v -1 -10 0
v -1 -9 0
v 0 -9 0
v -24 -11 0
v -25 -11 0
v -25 -10 0
v -24 -10 0
v 0 -11 0
v -1 -11 0
v -1 -10 0
v 0 -10 0
v -24 -12 0
v -25 -12 0
v -25 -11 0
v -24 -11 0
v 0 -12 0
v -1 -12 0
v -1 -11 0
v 0 -11 0
v -24 -13 0
v -25 -13 0
v -25 -12 0
v -24 -12 0
v 0 -13 0
v -1 -13 0
v -1 -12 0
v 0 -12 0
v -24 -14 0
v -25 -14 0
v -25 -13 0
v -24 -13 0
v 0 -16 0
v -1 -16 0
v -1 -15 0
v 0 -15 0
v 0 -17 0
v -1 -17 0
v -1 -16 0
v 0 -16 0
v -24 -18 0
v -25 -18 0
v -25 -17 0
v -24 -17 0
v -20 -18 0
v -21 -18 0
v -21 -17 0
v -20 -17 0
v -19 -18 0
v -20 -18 0
v -20 -17 0
v -19 -17 0
v -4 -18 0
v -5 -18 0
v -5 -17 0
v -4 -17 0
v -3 -18 0
v -4 -18 0
v -4 -17 0
v -3 -17 0
v 0 -18 0
v -1 -18 0
v -1 -17 0
v 0 -17 0
v -24 -19 0
v -25 -19 0
v -25 -18 0
v -24 -18 0
v -20 -19 0
v -21 -19 0
v -21 -18 0
v -20 -18 0
v -19 -19 0
v -20 -19 0
v -20 -18 0
v -19 -18 0
v -4 -19 0
v -5 -19 0
v -5 -18 0
v -4 -18 0
v -3 -19 0
v -4 -19 0
v -4 -18 0
v -3 -18 0
v 0 -19 0
v -1 -19 0
v -1 -18 0
v 0 -18 0
v -24 -20 0
v -25 -20 0
v -25 -19 0
v -24 -19 0
v 0 -20 0
v -1 -20 0
v -1 -19 0
v 0 -19 0
v -24 -21 0
v -25 -21 0
v -25 -20 0
v -24 -20 0
v -10 -21 0
v -11 -21 0
v -11 -20 0
v -10 -20 0
v -9 -21 0
v -10 -21 0
v -10 -20 0
v -9 -20 0
v 0 -21 0
v -1 -21 0
v -1 -20 0
v 0 -20 0
v -24 -22 0
v -25 -22 0
v -25 -21 0
v -24 -21 0
v -10 -22 0
v -11 -22 0
v -11 -21 0
v -10 -21 0
v -9 -22 0
v -10 -22 0
v -10 -21 0
v -9 -21 0
v 0 -22 0
v -1 -22 0
v -1 -21 0
v 0 -21 0
v -24 -23 0
v -25 -23 0
v -25 -22 0
v -24 -22 0
v 0 -23 0
v -1 -23 0
v -1 -22 0
v 0 -22 0
v -24 -24 0
v -25 -24 0
v -25 -23 0
v -24 -23 0
v 0 -24 0
v -1 -24 0
v -1 -23 0
v 0 -23 0
v -24 -25 0
v -25 -25 0
v -25 -24 0
v -24 -24 0
v -23 -25 0
v -24 -25 0
v -24 -24 0
v -23 -24 0
v -22 -25 0
v -23 -25 0
v -23 -24 0
v -22 -24 0
v -21 -25 0
v -22 -25 0
v -22 -24 0
v -21 -24 0
v -20 -25 0
v -21 -25 0
v -21 -24 0
v -20 -24 0
v -19 -25 0
v -20 -25 0
v -20 -24 0
v -19 -24 0
v -18 -25 0
v -19 -25 0
v -19 -24 0
v -18 -24 0
v -17 -25 0
v -18 -25 0
v -18 -24 0
v -17 -24 0
v -16 -25 0
v -17 -25 0
v -17 -24 0
v -16 -24 0
v -15 -25 0
v -16 -25 0
v -16 -24 0
v -15 -24 0
v -14 -25 0
v -15 -25 0
v -15 -24 0
v -14 -24 0
v -13 -25 0
v -14 -25 0
v -14 -24 0
v -13 -24 0
v -12 -25 0
v -13 -25 0
v -13 -24 0
v -12 -24 0
v -11 -25 0
v -12 -25 0
v -12 -24 0
v -11 -24 0
v -10 -25 0
v -11 -25 0
v -11 -24 0
v -10 -24 0
v -9 -25 0
v -10 -25 0
v -10 -24 0
v -9 -24 0
v -8 -25 0
v -9 -25 0
v -9 -24 0
v -8 -24 0
v -7 -25 0
v -8 -25 0
v -8 -24 0
v -7 -24 0
v -6 -25 0
v -7 -25 0
v -7 -24 0
v -6 -24 0
v -5 -25 0
v -6 -25 0
v -6 -24 0
v -5 -24 0
v -4 -25 0
v -5 -25 0
v -5 -24 0
v -4 -24 0
v -3 -25 0
v -4 -25 0
v -4 -24 0
v -3 -24 0
v -2 -25 0
v -3 -25 0
v -3 -24 0
v -2 -24 0
v -1 -25 0
v -2 -25 0
v -2 -24 0
v -1 -24 0
v 0 -25 0
v -1 -25 0
v -1 -24 0
v 0 -24 0

# Texture cooridinates (Count = 88)
vt 0.175 0.5
vt 0.2 0.5
vt 0.2 0.5277778
vt 0.175 0.5277778
vt 0.125 0.4444444
vt 0.15 0.4444444
vt 0.15 0.4722222
vt 0.125 0.4722222
vt 0.125 0.5
vt 0.15 0.5
vt 0.15 0.5277778
vt 0.125 0.5277778
vt 0.1 0.4444444
vt 0.1 0.4722222
vt 0.175 0.4722222
vt 0.2 0.4722222
vt 0.25 0.6666666
vt 0.275 0.6666666
vt 0.275 0.6944444
vt 0.25 0.6944444
vt 0.225 0.6666666
vt 0.225 0.6944444
vt 0.25 0.9722222
vt 0.275 0.9722222
vt 0.275 1
vt 0.25 1
vt 0.225 0.9722222
vt 0.225 1
vt 0.2 0.9722222
vt 0.2 1
vt 0.175 0.9722222
vt 0.175 1
vt 0.15 0.9722222
vt 0.15 1
vt 0.25 0.6388889
vt 0.275 0.6388889
vt 0.225 0.6388889
vt 0.25 0.9444444
vt 0.275 0.9444444
vt 0.225 0.9444444
vt 0.2 0.9444444
vt 0.175 0.9444444
vt 0.15 0.9444444
vt 0.35 0.8333333
vt 0.375 0.8333333
vt 0.375 0.8611111
vt 0.35 0.8611111
vt 0.325 0.8333333
vt 0.325 0.8611111
vt 0.25 0.9166667
vt 0.275 0.9166667
vt 0.225 0.9166667
vt 0.2 0.9166667
vt 0.175 0.9166667
vt 0.15 0.9166667
vt 0.35 0.8055556
vt 0.375 0.8055556
vt 0.325 0.8055556
vt 0.25 0.8888889
vt 0.275 0.8888889
vt 0.225 0.8888889
vt 0.2 0.8888889
vt 0.175 0.8888889
vt 0.15 0.8888889
vt 0.8 0.8888889
vt 0.825 0.8888889
vt 0.825 0.9166667
vt 0.8 0.9166667
vt 0.775 0.8888889
vt 0.775 0.9166667
vt 0.35 0.7777778
vt 0.375 0.7777778
vt 0.325 0.7777778
vt 0.25 0.8611111
vt 0.275 0.8611111
vt 0.225 0.8611111
vt 0.2 0.8611111
vt 0.175 0.8611111
vt 0.15 0.8611111
vt 0.8 0.8611111
vt 0.825 0.8611111
vt 0.775 0.8611111
vt 0.175 0.5555556
vt 0.15 0.5555556
vt 0.125 0.5555556
vt 0.2 0.5555556
vt 0.1 0.5277778
vt 0.1 0.5555556

# Normal
vn 0 0 -1

# Mesh description
g OverworldTest_mesh_0002

# Faces
f 1/1/1 2/2/1 3/3/1 4/4/1
f 5/5/1 6/6/1 7/7/1 8/8/1
f 9/5/1 10/6/1 11/7/1 12/8/1
f 13/5/1 14/6/1 15/7/1 16/8/1
f 17/5/1 18/6/1 19/7/1 20/8/1
f 21/5/1 22/6/1 23/7/1 24/8/1
f 25/5/1 26/6/1 27/7/1 28/8/1
f 29/5/1 30/6/1 31/7/1 32/8/1
f 33/5/1 34/6/1 35/7/1 36/8/1
f 37/5/1 38/6/1 39/7/1 40/8/1
f 41/9/1 42/10/1 43/11/1 44/12/1
f 45/10/1 46/1/1 47/4/1 48/11/1
f 49/5/1 50/6/1 51/7/1 52/8/1
f 53/5/1 54/6/1 55/7/1 56/8/1
f 57/5/1 58/6/1 59/7/1 60/8/1
f 61/5/1 62/6/1 63/7/1 64/8/1
f 65/5/1 66/6/1 67/7/1 68/8/1
f 69/5/1 70/6/1 71/7/1 72/8/1
f 73/5/1 74/6/1 75/7/1 76/8/1
f 77/5/1 78/6/1 79/7/1 80/8/1
f 81/5/1 82/6/1 83/7/1 84/8/1
f 85/5/1 86/6/1 87/7/1 88/8/1
f 89/13/1 90/5/1 91/8/1 92/14/1
f 93/7/1 94/15/1 95/1/1 96/10/1
f 97/15/1 98/16/1 99/2/1 100/1/1
f 101/7/1 102/15/1 103/1/1 104/10/1
f 105/15/1 106/16/1 107/2/1 108/1/1
f 109/7/1 110/15/1 111/1/1 112/10/1
f 113/15/1 114/16/1 115/2/1 116/1/1
f 117/7/1 118/15/1 119/1/1 120/10/1
f 121/17/1 122/18/1 123/19/1 124/20/1
f 125/21/1 126/17/1 127/20/1 128/22/1
f 129/23/1 130/24/1 131/25/1 132/26/1
f 133/27/1 134/23/1 135/26/1 136/28/1
f 137/29/1 138/27/1 139/28/1 140/30/1
f 141/31/1 142/29/1 143/30/1 144/32/1
f 145/33/1 146/31/1 147/32/1 148/34/1
f 149/15/1 150/16/1 151/2/1 152/1/1
f 153/7/1 154/15/1 155/1/1 156/10/1
f 157/35/1 158/36/1 159/18/1 160/17/1
f 161/37/1 162/35/1 163/17/1 164/21/1
f 165/38/1 166/39/1 167/24/1 168/23/1
f 169/40/1 170/38/1 171/23/1 172/27/1
f 173/41/1 174/40/1 175/27/1 176/29/1
f 177/42/1 178/41/1 179/29/1 180/31/1
f 181/43/1 182/42/1 183/31/1 184/33/1
f 185/15/1 186/16/1 187/2/1 188/1/1
f 189/7/1 190/15/1 191/1/1 192/10/1
f 193/44/1 194/45/1 195/46/1 196/47/1
f 197/48/1 198/44/1 199/47/1 200/49/1
f 201/50/1 202/51/1 203/39/1 204/38/1
f 205/52/1 206/50/1 207/38/1 208/40/1
f 209/53/1 210/52/1 211/40/1 212/41/1
f 213/54/1 214/53/1 215/41/1 216/42/1
f 217/55/1 218/54/1 219/42/1 220/43/1
f 221/15/1 222/16/1 223/2/1 224/1/1
f 225/7/1 226/15/1 227/1/1 228/10/1
f 229/56/1 230/57/1 231/45/1 232/44/1
f 233/58/1 234/56/1 235/44/1 236/48/1
f 237/59/1 238/60/1 239/51/1 240/50/1
f 241/61/1 242/59/1 243/50/1 244/52/1
f 245/62/1 246/61/1 247/52/1 248/53/1
f 249/63/1 250/62/1 251/53/1 252/54/1
f 253/64/1 254/63/1 255/54/1 256/55/1
f 257/15/1 258/16/1 259/2/1 260/1/1
f 261/7/1 262/15/1 263/1/1 264/10/1
f 265/65/1 266/66/1 267/67/1 268/68/1
f 269/69/1 270/65/1 271/68/1 272/70/1
f 273/71/1 274/72/1 275/57/1 276/56/1
f 277/73/1 278/71/1 279/56/1 280/58/1
f 281/74/1 282/75/1 283/60/1 284/59/1
f 285/76/1 286/74/1 287/59/1 288/61/1
f 289/77/1 290/76/1 291/61/1 292/62/1
f 293/78/1 294/77/1 295/62/1 296/63/1
f 297/79/1 298/78/1 299/63/1 300/64/1
f 301/15/1 302/16/1 303/2/1 304/1/1
f 305/7/1 306/15/1 307/1/1 308/10/1
f 309/80/1 310/81/1 311/66/1 312/65/1
f 313/82/1 314/80/1 315/65/1 316/69/1
f 317/15/1 318/16/1 319/2/1 320/1/1
f 321/7/1 322/15/1 323/1/1 324/10/1
f 325/15/1 326/16/1 327/2/1 328/1/1
f 329/7/1 330/15/1 331/1/1 332/10/1
f 333/15/1 334/16/1 335/2/1 336/1/1
f 337/7/1 338/15/1 339/1/1 340/10/1
f 341/10/1 342/1/1 343/4/1 344/11/1
f 345/9/1 346/10/1 347/11/1 348/12/1
f 349/11/1 350/4/1 351/83/1 352/84/1
f 353/15/1 354/16/1 355/2/1 356/1/1
f 357/12/1 358/11/1 359/84/1 360/85/1
f 361/65/1 362/66/1 363/67/1 364/68/1
f 365/69/1 366/65/1 367/68/1 368/70/1
f 369/65/1 370/66/1 371/67/1 372/68/1
f 373/69/1 374/65/1 375/68/1 376/70/1
f 377/15/1 378/16/1 379/2/1 380/1/1
f 381/7/1 382/15/1 383/1/1 384/10/1
f 385/80/1 386/81/1 387/66/1 388/65/1
f 389/82/1 390/80/1 391/65/1 392/69/1
f 393/80/1 394/81/1 395/66/1 396/65/1
f 397/82/1 398/80/1 399/65/1 400/69/1
f 401/15/1 402/16/1 403/2/1 404/1/1
f 405/7/1 406/15/1 407/1/1 408/10/1
f 409/15/1 410/16/1 411/2/1 412/1/1
f 413/7/1 414/15/1 415/1/1 416/10/1
f 417/65/1 418/66/1 419/67/1 420/68/1
f 421/69/1 422/65/1 423/68/1 424/70/1
f 425/15/1 426/16/1 427/2/1 428/1/1
f 429/7/1 430/15/1 431/1/1 432/10/1
f 433/80/1 434/81/1 435/66/1 436/65/1
f 437/82/1 438/80/1 439/65/1 440/69/1
f 441/15/1 442/16/1 443/2/1 444/1/1
f 445/7/1 446/15/1 447/1/1 448/10/1
f 449/15/1 450/16/1 451/2/1 452/1/1
f 453/7/1 454/15/1 455/1/1 456/10/1
f 457/15/1 458/16/1 459/2/1 460/1/1
f 461/4/1 462/3/1 463/86/1 464/83/1
f 465/8/1 466/7/1 467/10/1 468/9/1
f 469/8/1 470/7/1 471/10/1 472/9/1
f 473/8/1 474/7/1 475/10/1 476/9/1
f 477/8/1 478/7/1 479/10/1 480/9/1
f 481/8/1 482/7/1 483/10/1 484/9/1
f 485/8/1 486/7/1 487/10/1 488/9/1
f 489/8/1 490/7/1 491/10/1 492/9/1
f 493/8/1 494/7/1 495/10/1 496/9/1
f 497/8/1 498/7/1 499/10/1 500/9/1
f 501/8/1 502/7/1 503/10/1 504/9/1
f 505/8/1 506/7/1 507/10/1 508/9/1
f 509/8/1 510/7/1 511/10/1 512/9/1
f 513/8/1 514/7/1 515/10/1 516/9/1
f 517/8/1 518/7/1 519/10/1 520/9/1
f 521/8/1 522/7/1 523/10/1 524/9/1
f 525/8/1 526/7/1 527/10/1 528/9/1
f 529/8/1 530/7/1 531/10/1 532/9/1
f 533/8/1 534/7/1 535/10/1 536/9/1
f 537/8/1 538/7/1 539/10/1 540/9/1
f 541/8/1 542/7/1 543/10/1 544/9/1
f 545/8/1 546/7/1 547/10/1 548/9/1
f 549/8/1 550/7/1 551/10/1 552/9/1
f 553/8/1 554/7/1 555/10/1 556/9/1
f 557/87/1 558/12/1 559/85/1 560/88/1

